<?xml version="1.0" encoding="UTF-8"?>
<svg width="80px" height="47px" viewBox="0 0 80 47" version="1.1" xmlns="http://www.w3.org/2000/svg" xmlns:xlink="http://www.w3.org/1999/xlink">
    <!-- Generator: Sketch 51.3 (57544) - http://www.bohemiancoding.com/sketch -->
    <title>logo</title>
    <desc>Created with Sketch.</desc>
    <defs></defs>
    <g id="Page-1" stroke="none" stroke-width="1" fill="none" fill-rule="evenodd">
        <g id="v.3" transform="translate(-122.000000, -19.000000)" fill="#FFFFFF">
            <g id="logo" transform="translate(122.000000, 19.000000)">
                <polygon id="Fill-1" points="0.650802098 16 0.640766365 19.1002185 10.048506 19.1002185 0 32 20 32 20 28.9255214 9.40287387 28.9255214 19.4051547 16"></polygon>
                <polygon id="Fill-2" points="60.6454456 16 60.6454456 19.0914403 70.046342 19.0914403 60 32 80 32 80 28.923187 69.4008965 28.923187 79.3958824 16"></polygon>
                <polygon id="Fill-3" points="25 16 31.0725755 16.0041299 33.7277405 24.0629021 36.6386386 16 42.4604347 16.0041299 45.2725691 23.8624414 48.0320707 16.0041299 54 16 48.7989602 32 42.5492911 32 39.455417 24.4431737 36.6021053 32 30.3524363 32"></polygon>
                <path d="M60.3381383,14.9803571 C56.8894807,7.51512191 49.3390774,2.39175622 40.4922739,2.39175622 C31.6716445,2.39175622 24.0572253,7.54006527 20.6196049,15 L18,14.9856576 C21.602548,6.20559563 30.300822,0 40.4922739,0 C50.6941324,0 59.4188957,6.16100937 63,14.9803571 L60.3381383,14.9803571 Z" id="Fill-4"></path>
                <path d="M60.3334194,32.0233765 C56.9318258,39.4463264 49.3188998,44.6408227 40.4736262,44.6408227 C31.6016648,44.6408227 23.962365,39.4746242 20.5871452,32.0141489 L18,32.0141489 C21.528753,40.7898579 30.2578563,47 40.4736262,47 C50.6890821,47 59.4659094,40.7612525 63,32 L60.3334194,32.0233765 Z" id="Fill-6"></path>
                <path d="M56.1505805,14.9696978 C52.981944,9.37847893 46.9358736,5.59226968 40.0055033,5.59226968 C33.0638119,5.59226968 27.0177416,9.38878791 23.8387274,15 L22,15 C25.3170681,8.4519198 32.1313976,4 40.0055033,4 C47.8686024,4 54.688278,8.4519198 58,14.9803192 L56.1505805,14.9696978 Z" id="Fill-8"></path>
                <path d="M56.161118,32.0128127 C53.0421165,37.1111359 46.9729617,40.5711102 39.986711,40.5711102 C32.9848262,40.5711102 26.9100432,37.1203276 23.7754076,32 L22,32 C25.2556435,37.9158264 32.0889927,42 39.986711,42 C47.8578514,42 54.7227815,37.9074703 58,32.0128127 L56.161118,32.0128127 Z" id="Fill-10"></path>
                <path d="M52.2888026,15 C49.5668777,11.4427282 45.3295472,9.20938571 40.4974759,9.20938571 C35.6594099,9.20938571 31.3747525,11.4225541 28.6689188,15 L26,15 C29.0355441,10.1733323 34.3888417,7 40.4974759,7 C46.6162065,7 51.9698196,10.1733323 55,15 L52.2888026,15 Z" id="Fill-12"></path>
                <path d="M52.2784033,32 C49.5827891,35.5016494 45.2944116,37.8298427 40.4632174,37.8298427 C35.6364058,37.8298427 31.3589849,35.5016494 28.6690055,32 L26,32.0141158 C28.9905008,36.7659379 34.3497987,40 40.4632174,40 C46.5922883,40 52.0198297,36.7659379 55,32 L52.2784033,32 Z" id="Fill-14"></path>
            </g>
        </g>
    </g>
</svg>